<svg width="131" height="107" viewBox="0 0 131 107" fill="none" xmlns="http://www.w3.org/2000/svg">
<path d="M1 3V106H127L1 3Z" fill="#9E9B49" stroke="#9E9B49" stroke-width="2"/>
<path d="M130 106H5L130 3V106Z" fill="#5A499E" stroke="#5A499E" stroke-width="2"/>
<path d="M24.6504 97V82.7812H28.6641C29.901 82.7812 30.9948 83.0547 31.9453 83.6016C32.8958 84.1484 33.6283 84.9264 34.1426 85.9355C34.6634 86.9447 34.9271 88.1035 34.9336 89.4121V90.3203C34.9336 91.6615 34.6732 92.8366 34.1523 93.8457C33.638 94.8548 32.8991 95.6296 31.9355 96.1699C30.9785 96.7103 29.862 96.987 28.5859 97H24.6504ZM26.5254 84.3242V95.4668H28.498C29.9434 95.4668 31.0664 95.0176 31.8672 94.1191C32.6745 93.2207 33.0781 91.9414 33.0781 90.2812V89.4512C33.0781 87.8366 32.6973 86.5833 31.9355 85.6914C31.1803 84.793 30.1061 84.3372 28.7129 84.3242H26.5254ZM45.4121 93.2891H39.4551L38.1172 97H36.1836L41.6133 82.7812H43.2539L48.6934 97H46.7695L45.4121 93.2891ZM40.0215 91.7461H44.8555L42.4336 85.0957L40.0215 91.7461ZM50.6074 97V82.7812H55.2559C56.7988 82.7812 57.9577 83.1003 58.7324 83.7383C59.5137 84.3763 59.9043 85.3203 59.9043 86.5703C59.9043 87.2344 59.7155 87.8236 59.3379 88.3379C58.9603 88.8457 58.446 89.2396 57.7949 89.5195C58.5632 89.7344 59.1686 90.1445 59.6113 90.75C60.0605 91.349 60.2852 92.0651 60.2852 92.8984C60.2852 94.1745 59.8717 95.1771 59.0449 95.9062C58.2181 96.6354 57.0495 97 55.5391 97H50.6074ZM52.4824 90.3496V95.4668H55.5781C56.4505 95.4668 57.1374 95.2422 57.6387 94.793C58.1465 94.3372 58.4004 93.7122 58.4004 92.918C58.4004 91.2057 57.4694 90.3496 55.6074 90.3496H52.4824ZM52.4824 88.8457H55.3145C56.1348 88.8457 56.7891 88.6406 57.2773 88.2305C57.7721 87.8203 58.0195 87.2637 58.0195 86.5605C58.0195 85.7793 57.7917 85.2129 57.3359 84.8613C56.8802 84.5033 56.1868 84.3242 55.2559 84.3242H52.4824V88.8457ZM67.2578 90.6621C65.6497 90.1999 64.4779 89.6335 63.7422 88.9629C63.013 88.2858 62.6484 87.4525 62.6484 86.4629C62.6484 85.3431 63.0944 84.4186 63.9863 83.6895C64.8848 82.9538 66.0501 82.5859 67.4824 82.5859C68.459 82.5859 69.3281 82.7747 70.0898 83.1523C70.8581 83.5299 71.4505 84.0508 71.8672 84.7148C72.2904 85.3789 72.502 86.1048 72.502 86.8926H70.6172C70.6172 86.0332 70.3438 85.3594 69.7969 84.8711C69.25 84.3763 68.4785 84.1289 67.4824 84.1289C66.5579 84.1289 65.8353 84.334 65.3145 84.7441C64.8001 85.1478 64.543 85.7109 64.543 86.4336C64.543 87.013 64.7871 87.5046 65.2754 87.9082C65.7702 88.3053 66.6068 88.6699 67.7852 89.002C68.9701 89.334 69.8945 89.7018 70.5586 90.1055C71.2292 90.5026 71.724 90.9681 72.043 91.502C72.3685 92.0358 72.5312 92.6641 72.5312 93.3867C72.5312 94.5391 72.082 95.4635 71.1836 96.1602C70.2852 96.8503 69.084 97.1953 67.5801 97.1953C66.6035 97.1953 65.6921 97.0098 64.8457 96.6387C63.9993 96.2611 63.3451 95.7467 62.8828 95.0957C62.4271 94.4447 62.1992 93.7057 62.1992 92.8789H64.084C64.084 93.7383 64.3997 94.4186 65.0312 94.9199C65.6693 95.4147 66.5189 95.6621 67.5801 95.6621C68.5697 95.6621 69.3281 95.4603 69.8555 95.0566C70.3828 94.653 70.6465 94.1029 70.6465 93.4062C70.6465 92.7096 70.4023 92.1725 69.9141 91.7949C69.4258 91.4108 68.5404 91.0332 67.2578 90.6621ZM78.5566 90.3887L76.8184 92.1953V97H74.9434V82.7812H76.8184V89.8125L83.1367 82.7812H85.4023L79.8066 89.0605L85.8418 97H83.5957L78.5566 90.3887ZM89.4941 97H87.6191V82.7812H89.4941V97ZM103.391 92.4883C103.215 93.9922 102.658 95.1543 101.721 95.9746C100.79 96.7884 99.5495 97.1953 98 97.1953C96.3203 97.1953 94.9727 96.5931 93.957 95.3887C92.9479 94.1842 92.4434 92.5729 92.4434 90.5547V89.1875C92.4434 87.8659 92.6777 86.7038 93.1465 85.7012C93.6217 84.6986 94.2923 83.9303 95.1582 83.3965C96.0241 82.8561 97.0267 82.5859 98.166 82.5859C99.6764 82.5859 100.887 83.0091 101.799 83.8555C102.71 84.6953 103.241 85.8607 103.391 87.3516H101.506C101.343 86.2188 100.988 85.3984 100.441 84.8906C99.901 84.3828 99.1426 84.1289 98.166 84.1289C96.9681 84.1289 96.0273 84.5716 95.3438 85.457C94.6667 86.3424 94.3281 87.6022 94.3281 89.2363V90.6133C94.3281 92.1562 94.6504 93.3835 95.2949 94.2949C95.9395 95.2064 96.8411 95.6621 98 95.6621C99.0417 95.6621 99.8392 95.4277 100.393 94.959C100.952 94.4837 101.324 93.6602 101.506 92.4883H103.391Z" fill="white"/>
</svg>
